%TF.GenerationSoftware,KiCad,Pcbnew,8.0.4*%
%TF.CreationDate,2024-11-04T05:07:06-05:00*%
%TF.ProjectId,6-axisIMU,362d6178-6973-4494-9d55-2e6b69636164,V01*%
%TF.SameCoordinates,Original*%
%TF.FileFunction,Soldermask,Top*%
%TF.FilePolarity,Negative*%
%FSLAX46Y46*%
G04 Gerber Fmt 4.6, Leading zero omitted, Abs format (unit mm)*
G04 Created by KiCad (PCBNEW 8.0.4) date 2024-11-04 05:07:06*
%MOMM*%
%LPD*%
G01*
G04 APERTURE LIST*
G04 Aperture macros list*
%AMRoundRect*
0 Rectangle with rounded corners*
0 $1 Rounding radius*
0 $2 $3 $4 $5 $6 $7 $8 $9 X,Y pos of 4 corners*
0 Add a 4 corners polygon primitive as box body*
4,1,4,$2,$3,$4,$5,$6,$7,$8,$9,$2,$3,0*
0 Add four circle primitives for the rounded corners*
1,1,$1+$1,$2,$3*
1,1,$1+$1,$4,$5*
1,1,$1+$1,$6,$7*
1,1,$1+$1,$8,$9*
0 Add four rect primitives between the rounded corners*
20,1,$1+$1,$2,$3,$4,$5,0*
20,1,$1+$1,$4,$5,$6,$7,0*
20,1,$1+$1,$6,$7,$8,$9,0*
20,1,$1+$1,$8,$9,$2,$3,0*%
G04 Aperture macros list end*
%ADD10C,0.010000*%
%ADD11C,2.500000*%
%ADD12RoundRect,0.250000X-0.550000X-0.550000X0.550000X-0.550000X0.550000X0.550000X-0.550000X0.550000X0*%
%ADD13C,0.299999*%
%ADD14RoundRect,0.140000X-0.140000X-0.170000X0.140000X-0.170000X0.140000X0.170000X-0.140000X0.170000X0*%
%ADD15RoundRect,0.225000X-0.225000X-0.250000X0.225000X-0.250000X0.225000X0.250000X-0.225000X0.250000X0*%
%ADD16RoundRect,0.135000X0.135000X0.185000X-0.135000X0.185000X-0.135000X-0.185000X0.135000X-0.185000X0*%
%ADD17RoundRect,0.135000X-0.135000X-0.185000X0.135000X-0.185000X0.135000X0.185000X-0.135000X0.185000X0*%
%ADD18RoundRect,0.140000X0.140000X0.170000X-0.140000X0.170000X-0.140000X-0.170000X0.140000X-0.170000X0*%
G04 APERTURE END LIST*
D10*
%TO.C,MT1*%
X87350000Y-35625000D02*
X86775000Y-35625000D01*
X86775000Y-35275000D01*
X87350000Y-35275000D01*
X87350000Y-35625000D01*
G36*
X87350000Y-35625000D02*
G01*
X86775000Y-35625000D01*
X86775000Y-35275000D01*
X87350000Y-35275000D01*
X87350000Y-35625000D01*
G37*
X87350000Y-35125000D02*
X86775000Y-35125000D01*
X86775000Y-34775000D01*
X87350000Y-34775000D01*
X87350000Y-35125000D01*
G36*
X87350000Y-35125000D02*
G01*
X86775000Y-35125000D01*
X86775000Y-34775000D01*
X87350000Y-34775000D01*
X87350000Y-35125000D01*
G37*
X87350000Y-34625000D02*
X86775000Y-34625000D01*
X86775000Y-34275000D01*
X87350000Y-34275000D01*
X87350000Y-34625000D01*
G36*
X87350000Y-34625000D02*
G01*
X86775000Y-34625000D01*
X86775000Y-34275000D01*
X87350000Y-34275000D01*
X87350000Y-34625000D01*
G37*
X87350000Y-34125000D02*
X86775000Y-34125000D01*
X86775000Y-33775000D01*
X87350000Y-33775000D01*
X87350000Y-34125000D01*
G36*
X87350000Y-34125000D02*
G01*
X86775000Y-34125000D01*
X86775000Y-33775000D01*
X87350000Y-33775000D01*
X87350000Y-34125000D01*
G37*
X86575000Y-35900000D02*
X86225000Y-35900000D01*
X86225000Y-35325000D01*
X86575000Y-35325000D01*
X86575000Y-35900000D01*
G36*
X86575000Y-35900000D02*
G01*
X86225000Y-35900000D01*
X86225000Y-35325000D01*
X86575000Y-35325000D01*
X86575000Y-35900000D01*
G37*
X86575000Y-34075000D02*
X86225000Y-34075000D01*
X86225000Y-33500000D01*
X86575000Y-33500000D01*
X86575000Y-34075000D01*
G36*
X86575000Y-34075000D02*
G01*
X86225000Y-34075000D01*
X86225000Y-33500000D01*
X86575000Y-33500000D01*
X86575000Y-34075000D01*
G37*
X86075000Y-35900000D02*
X85725000Y-35900000D01*
X85725000Y-35325000D01*
X86075000Y-35325000D01*
X86075000Y-35900000D01*
G36*
X86075000Y-35900000D02*
G01*
X85725000Y-35900000D01*
X85725000Y-35325000D01*
X86075000Y-35325000D01*
X86075000Y-35900000D01*
G37*
X86075000Y-34075000D02*
X85725000Y-34075000D01*
X85725000Y-33500000D01*
X86075000Y-33500000D01*
X86075000Y-34075000D01*
G36*
X86075000Y-34075000D02*
G01*
X85725000Y-34075000D01*
X85725000Y-33500000D01*
X86075000Y-33500000D01*
X86075000Y-34075000D01*
G37*
X85575000Y-35900000D02*
X85225000Y-35900000D01*
X85225000Y-35325000D01*
X85575000Y-35325000D01*
X85575000Y-35900000D01*
G36*
X85575000Y-35900000D02*
G01*
X85225000Y-35900000D01*
X85225000Y-35325000D01*
X85575000Y-35325000D01*
X85575000Y-35900000D01*
G37*
X85575000Y-34075000D02*
X85225000Y-34075000D01*
X85225000Y-33500000D01*
X85575000Y-33500000D01*
X85575000Y-34075000D01*
G36*
X85575000Y-34075000D02*
G01*
X85225000Y-34075000D01*
X85225000Y-33500000D01*
X85575000Y-33500000D01*
X85575000Y-34075000D01*
G37*
X85025000Y-35625000D02*
X84450000Y-35625000D01*
X84450000Y-35275000D01*
X85025000Y-35275000D01*
X85025000Y-35625000D01*
G36*
X85025000Y-35625000D02*
G01*
X84450000Y-35625000D01*
X84450000Y-35275000D01*
X85025000Y-35275000D01*
X85025000Y-35625000D01*
G37*
X85025000Y-35125000D02*
X84450000Y-35125000D01*
X84450000Y-34775000D01*
X85025000Y-34775000D01*
X85025000Y-35125000D01*
G36*
X85025000Y-35125000D02*
G01*
X84450000Y-35125000D01*
X84450000Y-34775000D01*
X85025000Y-34775000D01*
X85025000Y-35125000D01*
G37*
X85025000Y-34625000D02*
X84450000Y-34625000D01*
X84450000Y-34275000D01*
X85025000Y-34275000D01*
X85025000Y-34625000D01*
G36*
X85025000Y-34625000D02*
G01*
X84450000Y-34625000D01*
X84450000Y-34275000D01*
X85025000Y-34275000D01*
X85025000Y-34625000D01*
G37*
X85025000Y-34125000D02*
X84450000Y-34125000D01*
X84450000Y-33775000D01*
X85025000Y-33775000D01*
X85025000Y-34125000D01*
G36*
X85025000Y-34125000D02*
G01*
X84450000Y-34125000D01*
X84450000Y-33775000D01*
X85025000Y-33775000D01*
X85025000Y-34125000D01*
G37*
%TD*%
D11*
%TO.C,REF\u002A\u002A*%
X61660000Y-28550000D03*
%TD*%
%TO.C,REF\u002A\u002A*%
X106050000Y-28550000D03*
%TD*%
%TO.C,REF\u002A\u002A*%
X106050000Y-47660000D03*
%TD*%
%TO.C,REF\u002A\u002A*%
X61660000Y-47660000D03*
%TD*%
D12*
%TO.C,SDA*%
X63650000Y-43150000D03*
%TD*%
%TO.C,INT2*%
X63650000Y-34150000D03*
%TD*%
%TO.C,5V-In*%
X101500000Y-39900000D03*
%TD*%
%TO.C,INT1*%
X63700000Y-37100000D03*
%TD*%
%TO.C,SCL*%
X63700000Y-40100000D03*
%TD*%
D13*
%TO.C,U2*%
X101099999Y-31799999D03*
X100099998Y-31799999D03*
X99100000Y-31799999D03*
X100099998Y-31000001D03*
X99100000Y-30999998D03*
X101099999Y-30200000D03*
X100099998Y-30200000D03*
X99100000Y-30200000D03*
%TD*%
D14*
%TO.C,C1*%
X94480000Y-45600000D03*
X93520000Y-45600000D03*
%TD*%
D15*
%TO.C,C2*%
X86300000Y-42500000D03*
X84750000Y-42500000D03*
%TD*%
D16*
%TO.C,R2*%
X84380000Y-28350000D03*
X85400000Y-28350000D03*
%TD*%
D17*
%TO.C,R1*%
X89000000Y-29450000D03*
X87980000Y-29450000D03*
%TD*%
D18*
%TO.C,C3*%
X74820000Y-34250000D03*
X75780000Y-34250000D03*
%TD*%
M02*
