%TF.GenerationSoftware,KiCad,Pcbnew,8.0.4*%
%TF.CreationDate,2024-11-04T05:07:06-05:00*%
%TF.ProjectId,6-axisIMU,362d6178-6973-4494-9d55-2e6b69636164,V01*%
%TF.SameCoordinates,Original*%
%TF.FileFunction,Legend,Top*%
%TF.FilePolarity,Positive*%
%FSLAX46Y46*%
G04 Gerber Fmt 4.6, Leading zero omitted, Abs format (unit mm)*
G04 Created by KiCad (PCBNEW 8.0.4) date 2024-11-04 05:07:06*
%MOMM*%
%LPD*%
G01*
G04 APERTURE LIST*
%ADD10C,0.150000*%
%ADD11C,0.200000*%
%ADD12C,0.120000*%
%ADD13C,0.127000*%
G04 APERTURE END LIST*
D10*
X65785714Y-44957200D02*
X65928571Y-45004819D01*
X65928571Y-45004819D02*
X66166666Y-45004819D01*
X66166666Y-45004819D02*
X66261904Y-44957200D01*
X66261904Y-44957200D02*
X66309523Y-44909580D01*
X66309523Y-44909580D02*
X66357142Y-44814342D01*
X66357142Y-44814342D02*
X66357142Y-44719104D01*
X66357142Y-44719104D02*
X66309523Y-44623866D01*
X66309523Y-44623866D02*
X66261904Y-44576247D01*
X66261904Y-44576247D02*
X66166666Y-44528628D01*
X66166666Y-44528628D02*
X65976190Y-44481009D01*
X65976190Y-44481009D02*
X65880952Y-44433390D01*
X65880952Y-44433390D02*
X65833333Y-44385771D01*
X65833333Y-44385771D02*
X65785714Y-44290533D01*
X65785714Y-44290533D02*
X65785714Y-44195295D01*
X65785714Y-44195295D02*
X65833333Y-44100057D01*
X65833333Y-44100057D02*
X65880952Y-44052438D01*
X65880952Y-44052438D02*
X65976190Y-44004819D01*
X65976190Y-44004819D02*
X66214285Y-44004819D01*
X66214285Y-44004819D02*
X66357142Y-44052438D01*
X66785714Y-45004819D02*
X66785714Y-44004819D01*
X66785714Y-44004819D02*
X67023809Y-44004819D01*
X67023809Y-44004819D02*
X67166666Y-44052438D01*
X67166666Y-44052438D02*
X67261904Y-44147676D01*
X67261904Y-44147676D02*
X67309523Y-44242914D01*
X67309523Y-44242914D02*
X67357142Y-44433390D01*
X67357142Y-44433390D02*
X67357142Y-44576247D01*
X67357142Y-44576247D02*
X67309523Y-44766723D01*
X67309523Y-44766723D02*
X67261904Y-44861961D01*
X67261904Y-44861961D02*
X67166666Y-44957200D01*
X67166666Y-44957200D02*
X67023809Y-45004819D01*
X67023809Y-45004819D02*
X66785714Y-45004819D01*
X67738095Y-44719104D02*
X68214285Y-44719104D01*
X67642857Y-45004819D02*
X67976190Y-44004819D01*
X67976190Y-44004819D02*
X68309523Y-45004819D01*
X59319048Y-35804819D02*
X59319048Y-34804819D01*
X59795238Y-35804819D02*
X59795238Y-34804819D01*
X59795238Y-34804819D02*
X60366666Y-35804819D01*
X60366666Y-35804819D02*
X60366666Y-34804819D01*
X60700000Y-34804819D02*
X61271428Y-34804819D01*
X60985714Y-35804819D02*
X60985714Y-34804819D01*
X61557143Y-34900057D02*
X61604762Y-34852438D01*
X61604762Y-34852438D02*
X61700000Y-34804819D01*
X61700000Y-34804819D02*
X61938095Y-34804819D01*
X61938095Y-34804819D02*
X62033333Y-34852438D01*
X62033333Y-34852438D02*
X62080952Y-34900057D01*
X62080952Y-34900057D02*
X62128571Y-34995295D01*
X62128571Y-34995295D02*
X62128571Y-35090533D01*
X62128571Y-35090533D02*
X62080952Y-35233390D01*
X62080952Y-35233390D02*
X61509524Y-35804819D01*
X61509524Y-35804819D02*
X62128571Y-35804819D01*
X100000000Y-37354819D02*
X99523810Y-37354819D01*
X99523810Y-37354819D02*
X99476191Y-37831009D01*
X99476191Y-37831009D02*
X99523810Y-37783390D01*
X99523810Y-37783390D02*
X99619048Y-37735771D01*
X99619048Y-37735771D02*
X99857143Y-37735771D01*
X99857143Y-37735771D02*
X99952381Y-37783390D01*
X99952381Y-37783390D02*
X100000000Y-37831009D01*
X100000000Y-37831009D02*
X100047619Y-37926247D01*
X100047619Y-37926247D02*
X100047619Y-38164342D01*
X100047619Y-38164342D02*
X100000000Y-38259580D01*
X100000000Y-38259580D02*
X99952381Y-38307200D01*
X99952381Y-38307200D02*
X99857143Y-38354819D01*
X99857143Y-38354819D02*
X99619048Y-38354819D01*
X99619048Y-38354819D02*
X99523810Y-38307200D01*
X99523810Y-38307200D02*
X99476191Y-38259580D01*
X100333334Y-37354819D02*
X100666667Y-38354819D01*
X100666667Y-38354819D02*
X101000000Y-37354819D01*
X101333334Y-37973866D02*
X102095239Y-37973866D01*
X102571429Y-38354819D02*
X102571429Y-37354819D01*
X103047619Y-37688152D02*
X103047619Y-38354819D01*
X103047619Y-37783390D02*
X103095238Y-37735771D01*
X103095238Y-37735771D02*
X103190476Y-37688152D01*
X103190476Y-37688152D02*
X103333333Y-37688152D01*
X103333333Y-37688152D02*
X103428571Y-37735771D01*
X103428571Y-37735771D02*
X103476190Y-37831009D01*
X103476190Y-37831009D02*
X103476190Y-38354819D01*
X65919048Y-38454819D02*
X65919048Y-37454819D01*
X66395238Y-38454819D02*
X66395238Y-37454819D01*
X66395238Y-37454819D02*
X66966666Y-38454819D01*
X66966666Y-38454819D02*
X66966666Y-37454819D01*
X67300000Y-37454819D02*
X67871428Y-37454819D01*
X67585714Y-38454819D02*
X67585714Y-37454819D01*
X68728571Y-38454819D02*
X68157143Y-38454819D01*
X68442857Y-38454819D02*
X68442857Y-37454819D01*
X68442857Y-37454819D02*
X68347619Y-37597676D01*
X68347619Y-37597676D02*
X68252381Y-37692914D01*
X68252381Y-37692914D02*
X68157143Y-37740533D01*
X65359524Y-41407200D02*
X65502381Y-41454819D01*
X65502381Y-41454819D02*
X65740476Y-41454819D01*
X65740476Y-41454819D02*
X65835714Y-41407200D01*
X65835714Y-41407200D02*
X65883333Y-41359580D01*
X65883333Y-41359580D02*
X65930952Y-41264342D01*
X65930952Y-41264342D02*
X65930952Y-41169104D01*
X65930952Y-41169104D02*
X65883333Y-41073866D01*
X65883333Y-41073866D02*
X65835714Y-41026247D01*
X65835714Y-41026247D02*
X65740476Y-40978628D01*
X65740476Y-40978628D02*
X65550000Y-40931009D01*
X65550000Y-40931009D02*
X65454762Y-40883390D01*
X65454762Y-40883390D02*
X65407143Y-40835771D01*
X65407143Y-40835771D02*
X65359524Y-40740533D01*
X65359524Y-40740533D02*
X65359524Y-40645295D01*
X65359524Y-40645295D02*
X65407143Y-40550057D01*
X65407143Y-40550057D02*
X65454762Y-40502438D01*
X65454762Y-40502438D02*
X65550000Y-40454819D01*
X65550000Y-40454819D02*
X65788095Y-40454819D01*
X65788095Y-40454819D02*
X65930952Y-40502438D01*
X66930952Y-41359580D02*
X66883333Y-41407200D01*
X66883333Y-41407200D02*
X66740476Y-41454819D01*
X66740476Y-41454819D02*
X66645238Y-41454819D01*
X66645238Y-41454819D02*
X66502381Y-41407200D01*
X66502381Y-41407200D02*
X66407143Y-41311961D01*
X66407143Y-41311961D02*
X66359524Y-41216723D01*
X66359524Y-41216723D02*
X66311905Y-41026247D01*
X66311905Y-41026247D02*
X66311905Y-40883390D01*
X66311905Y-40883390D02*
X66359524Y-40692914D01*
X66359524Y-40692914D02*
X66407143Y-40597676D01*
X66407143Y-40597676D02*
X66502381Y-40502438D01*
X66502381Y-40502438D02*
X66645238Y-40454819D01*
X66645238Y-40454819D02*
X66740476Y-40454819D01*
X66740476Y-40454819D02*
X66883333Y-40502438D01*
X66883333Y-40502438D02*
X66930952Y-40550057D01*
X67835714Y-41454819D02*
X67359524Y-41454819D01*
X67359524Y-41454819D02*
X67359524Y-40454819D01*
X102188095Y-30654819D02*
X102188095Y-31464342D01*
X102188095Y-31464342D02*
X102235714Y-31559580D01*
X102235714Y-31559580D02*
X102283333Y-31607200D01*
X102283333Y-31607200D02*
X102378571Y-31654819D01*
X102378571Y-31654819D02*
X102569047Y-31654819D01*
X102569047Y-31654819D02*
X102664285Y-31607200D01*
X102664285Y-31607200D02*
X102711904Y-31559580D01*
X102711904Y-31559580D02*
X102759523Y-31464342D01*
X102759523Y-31464342D02*
X102759523Y-30654819D01*
X103188095Y-30750057D02*
X103235714Y-30702438D01*
X103235714Y-30702438D02*
X103330952Y-30654819D01*
X103330952Y-30654819D02*
X103569047Y-30654819D01*
X103569047Y-30654819D02*
X103664285Y-30702438D01*
X103664285Y-30702438D02*
X103711904Y-30750057D01*
X103711904Y-30750057D02*
X103759523Y-30845295D01*
X103759523Y-30845295D02*
X103759523Y-30940533D01*
X103759523Y-30940533D02*
X103711904Y-31083390D01*
X103711904Y-31083390D02*
X103140476Y-31654819D01*
X103140476Y-31654819D02*
X103759523Y-31654819D01*
X95545238Y-28354819D02*
X96164285Y-28354819D01*
X96164285Y-28354819D02*
X95830952Y-28735771D01*
X95830952Y-28735771D02*
X95973809Y-28735771D01*
X95973809Y-28735771D02*
X96069047Y-28783390D01*
X96069047Y-28783390D02*
X96116666Y-28831009D01*
X96116666Y-28831009D02*
X96164285Y-28926247D01*
X96164285Y-28926247D02*
X96164285Y-29164342D01*
X96164285Y-29164342D02*
X96116666Y-29259580D01*
X96116666Y-29259580D02*
X96069047Y-29307200D01*
X96069047Y-29307200D02*
X95973809Y-29354819D01*
X95973809Y-29354819D02*
X95688095Y-29354819D01*
X95688095Y-29354819D02*
X95592857Y-29307200D01*
X95592857Y-29307200D02*
X95545238Y-29259580D01*
X96450000Y-28354819D02*
X96783333Y-29354819D01*
X96783333Y-29354819D02*
X97116666Y-28354819D01*
X98402381Y-28354819D02*
X98592857Y-28354819D01*
X98592857Y-28354819D02*
X98688095Y-28402438D01*
X98688095Y-28402438D02*
X98783333Y-28497676D01*
X98783333Y-28497676D02*
X98830952Y-28688152D01*
X98830952Y-28688152D02*
X98830952Y-29021485D01*
X98830952Y-29021485D02*
X98783333Y-29211961D01*
X98783333Y-29211961D02*
X98688095Y-29307200D01*
X98688095Y-29307200D02*
X98592857Y-29354819D01*
X98592857Y-29354819D02*
X98402381Y-29354819D01*
X98402381Y-29354819D02*
X98307143Y-29307200D01*
X98307143Y-29307200D02*
X98211905Y-29211961D01*
X98211905Y-29211961D02*
X98164286Y-29021485D01*
X98164286Y-29021485D02*
X98164286Y-28688152D01*
X98164286Y-28688152D02*
X98211905Y-28497676D01*
X98211905Y-28497676D02*
X98307143Y-28402438D01*
X98307143Y-28402438D02*
X98402381Y-28354819D01*
X99688095Y-28688152D02*
X99688095Y-29354819D01*
X99259524Y-28688152D02*
X99259524Y-29211961D01*
X99259524Y-29211961D02*
X99307143Y-29307200D01*
X99307143Y-29307200D02*
X99402381Y-29354819D01*
X99402381Y-29354819D02*
X99545238Y-29354819D01*
X99545238Y-29354819D02*
X99640476Y-29307200D01*
X99640476Y-29307200D02*
X99688095Y-29259580D01*
X100021429Y-28688152D02*
X100402381Y-28688152D01*
X100164286Y-28354819D02*
X100164286Y-29211961D01*
X100164286Y-29211961D02*
X100211905Y-29307200D01*
X100211905Y-29307200D02*
X100307143Y-29354819D01*
X100307143Y-29354819D02*
X100402381Y-29354819D01*
X95983333Y-45709580D02*
X95935714Y-45757200D01*
X95935714Y-45757200D02*
X95792857Y-45804819D01*
X95792857Y-45804819D02*
X95697619Y-45804819D01*
X95697619Y-45804819D02*
X95554762Y-45757200D01*
X95554762Y-45757200D02*
X95459524Y-45661961D01*
X95459524Y-45661961D02*
X95411905Y-45566723D01*
X95411905Y-45566723D02*
X95364286Y-45376247D01*
X95364286Y-45376247D02*
X95364286Y-45233390D01*
X95364286Y-45233390D02*
X95411905Y-45042914D01*
X95411905Y-45042914D02*
X95459524Y-44947676D01*
X95459524Y-44947676D02*
X95554762Y-44852438D01*
X95554762Y-44852438D02*
X95697619Y-44804819D01*
X95697619Y-44804819D02*
X95792857Y-44804819D01*
X95792857Y-44804819D02*
X95935714Y-44852438D01*
X95935714Y-44852438D02*
X95983333Y-44900057D01*
X96935714Y-45804819D02*
X96364286Y-45804819D01*
X96650000Y-45804819D02*
X96650000Y-44804819D01*
X96650000Y-44804819D02*
X96554762Y-44947676D01*
X96554762Y-44947676D02*
X96459524Y-45042914D01*
X96459524Y-45042914D02*
X96364286Y-45090533D01*
X85358333Y-41429580D02*
X85310714Y-41477200D01*
X85310714Y-41477200D02*
X85167857Y-41524819D01*
X85167857Y-41524819D02*
X85072619Y-41524819D01*
X85072619Y-41524819D02*
X84929762Y-41477200D01*
X84929762Y-41477200D02*
X84834524Y-41381961D01*
X84834524Y-41381961D02*
X84786905Y-41286723D01*
X84786905Y-41286723D02*
X84739286Y-41096247D01*
X84739286Y-41096247D02*
X84739286Y-40953390D01*
X84739286Y-40953390D02*
X84786905Y-40762914D01*
X84786905Y-40762914D02*
X84834524Y-40667676D01*
X84834524Y-40667676D02*
X84929762Y-40572438D01*
X84929762Y-40572438D02*
X85072619Y-40524819D01*
X85072619Y-40524819D02*
X85167857Y-40524819D01*
X85167857Y-40524819D02*
X85310714Y-40572438D01*
X85310714Y-40572438D02*
X85358333Y-40620057D01*
X85739286Y-40620057D02*
X85786905Y-40572438D01*
X85786905Y-40572438D02*
X85882143Y-40524819D01*
X85882143Y-40524819D02*
X86120238Y-40524819D01*
X86120238Y-40524819D02*
X86215476Y-40572438D01*
X86215476Y-40572438D02*
X86263095Y-40620057D01*
X86263095Y-40620057D02*
X86310714Y-40715295D01*
X86310714Y-40715295D02*
X86310714Y-40810533D01*
X86310714Y-40810533D02*
X86263095Y-40953390D01*
X86263095Y-40953390D02*
X85691667Y-41524819D01*
X85691667Y-41524819D02*
X86310714Y-41524819D01*
X83883333Y-30204819D02*
X83550000Y-29728628D01*
X83311905Y-30204819D02*
X83311905Y-29204819D01*
X83311905Y-29204819D02*
X83692857Y-29204819D01*
X83692857Y-29204819D02*
X83788095Y-29252438D01*
X83788095Y-29252438D02*
X83835714Y-29300057D01*
X83835714Y-29300057D02*
X83883333Y-29395295D01*
X83883333Y-29395295D02*
X83883333Y-29538152D01*
X83883333Y-29538152D02*
X83835714Y-29633390D01*
X83835714Y-29633390D02*
X83788095Y-29681009D01*
X83788095Y-29681009D02*
X83692857Y-29728628D01*
X83692857Y-29728628D02*
X83311905Y-29728628D01*
X84264286Y-29300057D02*
X84311905Y-29252438D01*
X84311905Y-29252438D02*
X84407143Y-29204819D01*
X84407143Y-29204819D02*
X84645238Y-29204819D01*
X84645238Y-29204819D02*
X84740476Y-29252438D01*
X84740476Y-29252438D02*
X84788095Y-29300057D01*
X84788095Y-29300057D02*
X84835714Y-29395295D01*
X84835714Y-29395295D02*
X84835714Y-29490533D01*
X84835714Y-29490533D02*
X84788095Y-29633390D01*
X84788095Y-29633390D02*
X84216667Y-30204819D01*
X84216667Y-30204819D02*
X84835714Y-30204819D01*
X88323333Y-28734819D02*
X87990000Y-28258628D01*
X87751905Y-28734819D02*
X87751905Y-27734819D01*
X87751905Y-27734819D02*
X88132857Y-27734819D01*
X88132857Y-27734819D02*
X88228095Y-27782438D01*
X88228095Y-27782438D02*
X88275714Y-27830057D01*
X88275714Y-27830057D02*
X88323333Y-27925295D01*
X88323333Y-27925295D02*
X88323333Y-28068152D01*
X88323333Y-28068152D02*
X88275714Y-28163390D01*
X88275714Y-28163390D02*
X88228095Y-28211009D01*
X88228095Y-28211009D02*
X88132857Y-28258628D01*
X88132857Y-28258628D02*
X87751905Y-28258628D01*
X89275714Y-28734819D02*
X88704286Y-28734819D01*
X88990000Y-28734819D02*
X88990000Y-27734819D01*
X88990000Y-27734819D02*
X88894762Y-27877676D01*
X88894762Y-27877676D02*
X88799524Y-27972914D01*
X88799524Y-27972914D02*
X88704286Y-28020533D01*
X83035714Y-33005782D02*
X83035714Y-32111782D01*
X83035714Y-32111782D02*
X83333714Y-32750353D01*
X83333714Y-32750353D02*
X83631714Y-32111782D01*
X83631714Y-32111782D02*
X83631714Y-33005782D01*
X83929713Y-32111782D02*
X84440571Y-32111782D01*
X84185142Y-33005782D02*
X84185142Y-32111782D01*
X85206856Y-33005782D02*
X84695999Y-33005782D01*
X84951428Y-33005782D02*
X84951428Y-32111782D01*
X84951428Y-32111782D02*
X84866285Y-32239496D01*
X84866285Y-32239496D02*
X84781142Y-32324639D01*
X84781142Y-32324639D02*
X84695999Y-32367211D01*
X72883333Y-34859580D02*
X72835714Y-34907200D01*
X72835714Y-34907200D02*
X72692857Y-34954819D01*
X72692857Y-34954819D02*
X72597619Y-34954819D01*
X72597619Y-34954819D02*
X72454762Y-34907200D01*
X72454762Y-34907200D02*
X72359524Y-34811961D01*
X72359524Y-34811961D02*
X72311905Y-34716723D01*
X72311905Y-34716723D02*
X72264286Y-34526247D01*
X72264286Y-34526247D02*
X72264286Y-34383390D01*
X72264286Y-34383390D02*
X72311905Y-34192914D01*
X72311905Y-34192914D02*
X72359524Y-34097676D01*
X72359524Y-34097676D02*
X72454762Y-34002438D01*
X72454762Y-34002438D02*
X72597619Y-33954819D01*
X72597619Y-33954819D02*
X72692857Y-33954819D01*
X72692857Y-33954819D02*
X72835714Y-34002438D01*
X72835714Y-34002438D02*
X72883333Y-34050057D01*
X73216667Y-33954819D02*
X73835714Y-33954819D01*
X73835714Y-33954819D02*
X73502381Y-34335771D01*
X73502381Y-34335771D02*
X73645238Y-34335771D01*
X73645238Y-34335771D02*
X73740476Y-34383390D01*
X73740476Y-34383390D02*
X73788095Y-34431009D01*
X73788095Y-34431009D02*
X73835714Y-34526247D01*
X73835714Y-34526247D02*
X73835714Y-34764342D01*
X73835714Y-34764342D02*
X73788095Y-34859580D01*
X73788095Y-34859580D02*
X73740476Y-34907200D01*
X73740476Y-34907200D02*
X73645238Y-34954819D01*
X73645238Y-34954819D02*
X73359524Y-34954819D01*
X73359524Y-34954819D02*
X73264286Y-34907200D01*
X73264286Y-34907200D02*
X73216667Y-34859580D01*
D11*
%TO.C,U2*%
X98574997Y-32225000D02*
X98774997Y-32225000D01*
X98574997Y-32225000D02*
X98574997Y-32025000D01*
X101424999Y-32225000D02*
X101624999Y-32225000D01*
X101624999Y-32225000D02*
X101624999Y-32025000D01*
X101624999Y-29975002D02*
X101624999Y-29775002D01*
X101424999Y-29775002D02*
X101624999Y-29775002D01*
X98574997Y-29775002D02*
X99124996Y-29775002D01*
X98574997Y-30325001D02*
X98574997Y-29775002D01*
D12*
%TO.C,C1*%
X93892164Y-45960000D02*
X94107836Y-45960000D01*
X93892164Y-45240000D02*
X94107836Y-45240000D01*
%TO.C,C2*%
X85384420Y-43010000D02*
X85665580Y-43010000D01*
X85384420Y-41990000D02*
X85665580Y-41990000D01*
%TO.C,R2*%
X85043641Y-27970000D02*
X84736359Y-27970000D01*
X85043641Y-28730000D02*
X84736359Y-28730000D01*
%TO.C,R1*%
X88336359Y-29830000D02*
X88643641Y-29830000D01*
X88336359Y-29070000D02*
X88643641Y-29070000D01*
D11*
%TO.C,MT1*%
X84000000Y-33950000D02*
G75*
G02*
X83800000Y-33950000I-100000J0D01*
G01*
X83800000Y-33950000D02*
G75*
G02*
X84000000Y-33950000I100000J0D01*
G01*
D13*
X87400000Y-35950000D02*
X87400000Y-35895000D01*
X87400000Y-35950000D02*
X86845000Y-35950000D01*
X87400000Y-33450000D02*
X87400000Y-33505000D01*
X86845000Y-33450000D02*
X87400000Y-33450000D01*
X84955000Y-35950000D02*
X84400000Y-35950000D01*
X84400000Y-35950000D02*
X84400000Y-35895000D01*
X84400000Y-33505000D02*
X84400000Y-33450000D01*
X84400000Y-33450000D02*
X84955000Y-33450000D01*
D12*
%TO.C,C3*%
X75407836Y-33890000D02*
X75192164Y-33890000D01*
X75407836Y-34610000D02*
X75192164Y-34610000D01*
%TD*%
M02*
