%TF.GenerationSoftware,KiCad,Pcbnew,8.0.4*%
%TF.CreationDate,2024-11-04T05:07:06-05:00*%
%TF.ProjectId,6-axisIMU,362d6178-6973-4494-9d55-2e6b69636164,V01*%
%TF.SameCoordinates,Original*%
%TF.FileFunction,Copper,L1,Top*%
%TF.FilePolarity,Positive*%
%FSLAX46Y46*%
G04 Gerber Fmt 4.6, Leading zero omitted, Abs format (unit mm)*
G04 Created by KiCad (PCBNEW 8.0.4) date 2024-11-04 05:07:06*
%MOMM*%
%LPD*%
G01*
G04 APERTURE LIST*
G04 Aperture macros list*
%AMRoundRect*
0 Rectangle with rounded corners*
0 $1 Rounding radius*
0 $2 $3 $4 $5 $6 $7 $8 $9 X,Y pos of 4 corners*
0 Add a 4 corners polygon primitive as box body*
4,1,4,$2,$3,$4,$5,$6,$7,$8,$9,$2,$3,0*
0 Add four circle primitives for the rounded corners*
1,1,$1+$1,$2,$3*
1,1,$1+$1,$4,$5*
1,1,$1+$1,$6,$7*
1,1,$1+$1,$8,$9*
0 Add four rect primitives between the rounded corners*
20,1,$1+$1,$2,$3,$4,$5,0*
20,1,$1+$1,$4,$5,$6,$7,0*
20,1,$1+$1,$6,$7,$8,$9,0*
20,1,$1+$1,$8,$9,$2,$3,0*%
G04 Aperture macros list end*
%TA.AperFunction,ComponentPad*%
%ADD10RoundRect,0.250000X-0.550000X-0.550000X0.550000X-0.550000X0.550000X0.550000X-0.550000X0.550000X0*%
%TD*%
%TA.AperFunction,SMDPad,CuDef*%
%ADD11C,0.299999*%
%TD*%
%TA.AperFunction,SMDPad,CuDef*%
%ADD12RoundRect,0.140000X-0.140000X-0.170000X0.140000X-0.170000X0.140000X0.170000X-0.140000X0.170000X0*%
%TD*%
%TA.AperFunction,SMDPad,CuDef*%
%ADD13RoundRect,0.225000X-0.225000X-0.250000X0.225000X-0.250000X0.225000X0.250000X-0.225000X0.250000X0*%
%TD*%
%TA.AperFunction,SMDPad,CuDef*%
%ADD14RoundRect,0.135000X0.135000X0.185000X-0.135000X0.185000X-0.135000X-0.185000X0.135000X-0.185000X0*%
%TD*%
%TA.AperFunction,SMDPad,CuDef*%
%ADD15RoundRect,0.135000X-0.135000X-0.185000X0.135000X-0.185000X0.135000X0.185000X-0.135000X0.185000X0*%
%TD*%
%TA.AperFunction,SMDPad,CuDef*%
%ADD16R,0.250000X0.475000*%
%TD*%
%TA.AperFunction,SMDPad,CuDef*%
%ADD17R,0.475000X0.250000*%
%TD*%
%TA.AperFunction,SMDPad,CuDef*%
%ADD18RoundRect,0.140000X0.140000X0.170000X-0.140000X0.170000X-0.140000X-0.170000X0.140000X-0.170000X0*%
%TD*%
%TA.AperFunction,ViaPad*%
%ADD19C,0.600000*%
%TD*%
%TA.AperFunction,Conductor*%
%ADD20C,0.200000*%
%TD*%
%TA.AperFunction,Conductor*%
%ADD21C,0.400000*%
%TD*%
G04 APERTURE END LIST*
D10*
%TO.P,SDA,1*%
%TO.N,unconnected-(R2-Pad2)*%
X63650000Y-43150000D03*
%TD*%
%TO.P,INT2,1*%
%TO.N,/INT2*%
X63650000Y-34150000D03*
%TD*%
%TO.P,5V-In,1*%
%TO.N,+5V*%
X101500000Y-39900000D03*
%TD*%
%TO.P,INT1,1*%
%TO.N,/INT1*%
X63700000Y-37100000D03*
%TD*%
%TO.P,SCL,1*%
%TO.N,SCL*%
X63700000Y-40100000D03*
%TD*%
D11*
%TO.P,U2,C3,GND*%
%TO.N,GND*%
X101099999Y-31799999D03*
%TO.P,U2,C2,GND*%
X100099998Y-31799999D03*
%TO.P,U2,C1,GND*%
X99100000Y-31799999D03*
%TO.P,U2,B2,EN*%
%TO.N,+5V*%
X100099998Y-31000001D03*
%TO.P,U2,B1,MODE*%
%TO.N,GND*%
X99100000Y-30999998D03*
%TO.P,U2,A3,VIN*%
%TO.N,+5V*%
X101099999Y-30200000D03*
%TO.P,U2,A2,VIN*%
X100099998Y-30200000D03*
%TO.P,U2,A1,VOUT*%
%TO.N,Net-(MT1-AP_CS)*%
X99100000Y-30200000D03*
%TD*%
D12*
%TO.P,C1,2*%
%TO.N,Net-(MT1-AP_CS)*%
X94480000Y-45600000D03*
%TO.P,C1,1*%
%TO.N,GND*%
X93520000Y-45600000D03*
%TD*%
D13*
%TO.P,C2,2*%
%TO.N,Net-(MT1-AP_CS)*%
X86300000Y-42500000D03*
%TO.P,C2,1*%
%TO.N,GND*%
X84750000Y-42500000D03*
%TD*%
D14*
%TO.P,R2,2*%
%TO.N,unconnected-(R2-Pad2)*%
X84380000Y-28350000D03*
%TO.P,R2,1*%
%TO.N,Net-(MT1-AP_SDA{slash}AP_SDIO{slash}AP_SDI)*%
X85400000Y-28350000D03*
%TD*%
D15*
%TO.P,R1,2*%
%TO.N,SCL*%
X89000000Y-29450000D03*
%TO.P,R1,1*%
%TO.N,Net-(MT1-AP_SCL{slash}AP_SCLK)*%
X87980000Y-29450000D03*
%TD*%
D16*
%TO.P,MT1,14,AP_SDA/AP_SDIO/AP_SDI*%
%TO.N,Net-(MT1-AP_SDA{slash}AP_SDIO{slash}AP_SDI)*%
X85400000Y-33787500D03*
%TO.P,MT1,13,AP_SCL/AP_SCLK*%
%TO.N,Net-(MT1-AP_SCL{slash}AP_SCLK)*%
X85900000Y-33787500D03*
%TO.P,MT1,12,AP_CS*%
%TO.N,Net-(MT1-AP_CS)*%
X86400000Y-33787500D03*
D17*
%TO.P,MT1,11,RESV__3*%
%TO.N,unconnected-(MT1-RESV__3-Pad11)*%
X87062500Y-33950000D03*
%TO.P,MT1,10,RESV__2*%
%TO.N,unconnected-(MT1-RESV__2-Pad10)*%
X87062500Y-34450000D03*
%TO.P,MT1,9,INT2*%
%TO.N,/INT2*%
X87062500Y-34950000D03*
%TO.P,MT1,8,VDD*%
%TO.N,Net-(MT1-AP_CS)*%
X87062500Y-35450000D03*
D16*
%TO.P,MT1,7,FSYNC*%
%TO.N,GND*%
X86400000Y-35612500D03*
%TO.P,MT1,6,GND*%
X85900000Y-35612500D03*
%TO.P,MT1,5,VDDIO*%
%TO.N,Net-(MT1-AP_CS)*%
X85400000Y-35612500D03*
D17*
%TO.P,MT1,4,INT1/INT*%
%TO.N,/INT1*%
X84737500Y-35450000D03*
%TO.P,MT1,3,RESV__1*%
%TO.N,unconnected-(MT1-RESV__1-Pad3)*%
X84737500Y-34950000D03*
%TO.P,MT1,2,RESV*%
%TO.N,unconnected-(MT1-RESV-Pad2)*%
X84737500Y-34450000D03*
%TO.P,MT1,1,AP_SDO/AP_AD0*%
%TO.N,GND*%
X84737500Y-33950000D03*
%TD*%
D18*
%TO.P,C3,2*%
%TO.N,GND*%
X74820000Y-34250000D03*
%TO.P,C3,1*%
%TO.N,Net-(MT1-AP_CS)*%
X75780000Y-34250000D03*
%TD*%
D19*
%TO.N,/INT2*%
X67050000Y-34150000D03*
%TO.N,GND*%
X86250000Y-37400000D03*
X74900000Y-31200000D03*
X100050000Y-33900000D03*
X90100000Y-47300000D03*
X81900000Y-42500000D03*
X81600000Y-32750000D03*
%TO.N,/INT1*%
X82650000Y-35450000D03*
X67650000Y-36050000D03*
%TO.N,/INT2*%
X88400000Y-34550000D03*
%TD*%
D20*
%TO.N,Net-(MT1-AP_CS)*%
X75780000Y-34250000D02*
X75780000Y-37180000D01*
X75780000Y-37180000D02*
X77900000Y-39300000D01*
X77900000Y-39300000D02*
X85400000Y-39300000D01*
%TO.N,unconnected-(R2-Pad2)*%
X84380000Y-28350000D02*
X74250000Y-28350000D01*
X74250000Y-28350000D02*
X69350000Y-33250000D01*
X69350000Y-33250000D02*
X69350000Y-42000000D01*
X69350000Y-42000000D02*
X68200000Y-43150000D01*
X68200000Y-43150000D02*
X63650000Y-43150000D01*
D21*
%TO.N,+5V*%
X101099999Y-30200000D02*
X102950000Y-30200000D01*
X107200000Y-34450000D02*
X107200000Y-37850000D01*
X105150000Y-39900000D02*
X101500000Y-39900000D01*
X102950000Y-30200000D02*
X107200000Y-34450000D01*
X107200000Y-37850000D02*
X105150000Y-39900000D01*
D20*
%TO.N,/INT2*%
X67050000Y-34150000D02*
X63650000Y-34150000D01*
%TO.N,SCL*%
X89000000Y-29450000D02*
X92400000Y-29450000D01*
X92400000Y-29450000D02*
X93200000Y-28650000D01*
X75200000Y-26200000D02*
X69300000Y-32100000D01*
X69300000Y-32100000D02*
X61000000Y-32100000D01*
X93200000Y-28650000D02*
X93200000Y-27450000D01*
X93200000Y-27450000D02*
X91950000Y-26200000D01*
X91950000Y-26200000D02*
X75200000Y-26200000D01*
X61000000Y-32100000D02*
X59000000Y-34100000D01*
X59000000Y-38600000D02*
X60500000Y-40100000D01*
X59000000Y-34100000D02*
X59000000Y-38600000D01*
X60500000Y-40100000D02*
X63700000Y-40100000D01*
%TO.N,/INT1*%
X67650000Y-36050000D02*
X66600000Y-37100000D01*
X66600000Y-37100000D02*
X63700000Y-37100000D01*
%TO.N,GND*%
X74900000Y-31200000D02*
X74820000Y-31280000D01*
X74820000Y-31280000D02*
X74820000Y-34250000D01*
X100099998Y-31799999D02*
X100099998Y-33850002D01*
X100099998Y-33850002D02*
X100050000Y-33900000D01*
X90100000Y-47300000D02*
X91800000Y-45600000D01*
X91800000Y-45600000D02*
X93520000Y-45600000D01*
X81900000Y-42500000D02*
X84750000Y-42500000D01*
X86400000Y-35612500D02*
X86400000Y-37250000D01*
X86400000Y-37250000D02*
X86250000Y-37400000D01*
X84737500Y-33950000D02*
X82800000Y-33950000D01*
X82800000Y-33950000D02*
X81600000Y-32750000D01*
%TO.N,Net-(MT1-AP_CS)*%
X85950000Y-39300000D02*
X85400000Y-39300000D01*
X85400000Y-35612500D02*
X85400000Y-39300000D01*
X87062500Y-35450000D02*
X87062500Y-38187500D01*
X87062500Y-38187500D02*
X85950000Y-39300000D01*
X86400000Y-32550000D02*
X86750000Y-32200000D01*
D21*
X96400000Y-30200000D02*
X94400000Y-32200000D01*
D20*
X86750000Y-32200000D02*
X94400000Y-32200000D01*
X86400000Y-33787500D02*
X86400000Y-32550000D01*
D21*
X94400000Y-32200000D02*
X92300000Y-34300000D01*
D20*
%TO.N,GND*%
X99100000Y-31799999D02*
X101099999Y-31799999D01*
X99100000Y-30999998D02*
X99100000Y-31799999D01*
%TO.N,/INT1*%
X82650000Y-35450000D02*
X84737500Y-35450000D01*
%TO.N,/INT2*%
X87062500Y-34950000D02*
X88000000Y-34950000D01*
X88000000Y-34950000D02*
X88400000Y-34550000D01*
%TO.N,Net-(MT1-AP_SDA{slash}AP_SDIO{slash}AP_SDI)*%
X85400000Y-28350000D02*
X85400000Y-33787500D01*
%TO.N,Net-(MT1-AP_SCL{slash}AP_SCLK)*%
X85900000Y-29900000D02*
X86350000Y-29450000D01*
X85900000Y-33787500D02*
X85900000Y-29900000D01*
X86350000Y-29450000D02*
X87980000Y-29450000D01*
X85900000Y-33787500D02*
X85917000Y-33770500D01*
%TO.N,Net-(MT1-AP_SDA{slash}AP_SDIO{slash}AP_SDI)*%
X85420000Y-33767500D02*
X85400000Y-33787500D01*
D21*
%TO.N,Net-(MT1-AP_CS)*%
X91700000Y-34900000D02*
X91150000Y-35450000D01*
X92300000Y-34300000D02*
X91700000Y-34900000D01*
D20*
X94480000Y-36480000D02*
X94480000Y-45600000D01*
X92300000Y-34300000D02*
X94480000Y-36480000D01*
D21*
X99100000Y-30200000D02*
X96400000Y-30200000D01*
X91150000Y-35450000D02*
X87062500Y-35450000D01*
%TO.N,+5V*%
X100099998Y-31000001D02*
X100099998Y-30200000D01*
X101099999Y-30200000D02*
X100099998Y-30200000D01*
D20*
%TO.N,GND*%
X85900000Y-35612500D02*
X86400000Y-35612500D01*
%TO.N,Net-(MT1-AP_CS)*%
X93200000Y-41500000D02*
X92200000Y-42500000D01*
X92200000Y-42500000D02*
X86300000Y-42500000D01*
X91700000Y-34900000D02*
X93200000Y-36400000D01*
X93200000Y-36400000D02*
X93200000Y-41500000D01*
%TD*%
M02*
