%TF.GenerationSoftware,KiCad,Pcbnew,8.0.4*%
%TF.CreationDate,2024-11-04T05:07:06-05:00*%
%TF.ProjectId,6-axisIMU,362d6178-6973-4494-9d55-2e6b69636164,V01*%
%TF.SameCoordinates,Original*%
%TF.FileFunction,Paste,Top*%
%TF.FilePolarity,Positive*%
%FSLAX46Y46*%
G04 Gerber Fmt 4.6, Leading zero omitted, Abs format (unit mm)*
G04 Created by KiCad (PCBNEW 8.0.4) date 2024-11-04 05:07:06*
%MOMM*%
%LPD*%
G01*
G04 APERTURE LIST*
G04 Aperture macros list*
%AMRoundRect*
0 Rectangle with rounded corners*
0 $1 Rounding radius*
0 $2 $3 $4 $5 $6 $7 $8 $9 X,Y pos of 4 corners*
0 Add a 4 corners polygon primitive as box body*
4,1,4,$2,$3,$4,$5,$6,$7,$8,$9,$2,$3,0*
0 Add four circle primitives for the rounded corners*
1,1,$1+$1,$2,$3*
1,1,$1+$1,$4,$5*
1,1,$1+$1,$6,$7*
1,1,$1+$1,$8,$9*
0 Add four rect primitives between the rounded corners*
20,1,$1+$1,$2,$3,$4,$5,0*
20,1,$1+$1,$4,$5,$6,$7,0*
20,1,$1+$1,$6,$7,$8,$9,0*
20,1,$1+$1,$8,$9,$2,$3,0*%
G04 Aperture macros list end*
%ADD10C,0.010000*%
%ADD11C,0.299999*%
%ADD12RoundRect,0.140000X-0.140000X-0.170000X0.140000X-0.170000X0.140000X0.170000X-0.140000X0.170000X0*%
%ADD13RoundRect,0.225000X-0.225000X-0.250000X0.225000X-0.250000X0.225000X0.250000X-0.225000X0.250000X0*%
%ADD14RoundRect,0.135000X0.135000X0.185000X-0.135000X0.185000X-0.135000X-0.185000X0.135000X-0.185000X0*%
%ADD15RoundRect,0.135000X-0.135000X-0.185000X0.135000X-0.185000X0.135000X0.185000X-0.135000X0.185000X0*%
%ADD16RoundRect,0.140000X0.140000X0.170000X-0.140000X0.170000X-0.140000X-0.170000X0.140000X-0.170000X0*%
G04 APERTURE END LIST*
D10*
%TO.C,MT1*%
X87287500Y-35569000D02*
X86837500Y-35569000D01*
X86837500Y-35331000D01*
X87287500Y-35331000D01*
X87287500Y-35569000D01*
G36*
X87287500Y-35569000D02*
G01*
X86837500Y-35569000D01*
X86837500Y-35331000D01*
X87287500Y-35331000D01*
X87287500Y-35569000D01*
G37*
X87287500Y-35069000D02*
X86837500Y-35069000D01*
X86837500Y-34831000D01*
X87287500Y-34831000D01*
X87287500Y-35069000D01*
G36*
X87287500Y-35069000D02*
G01*
X86837500Y-35069000D01*
X86837500Y-34831000D01*
X87287500Y-34831000D01*
X87287500Y-35069000D01*
G37*
X87287500Y-34569000D02*
X86837500Y-34569000D01*
X86837500Y-34331000D01*
X87287500Y-34331000D01*
X87287500Y-34569000D01*
G36*
X87287500Y-34569000D02*
G01*
X86837500Y-34569000D01*
X86837500Y-34331000D01*
X87287500Y-34331000D01*
X87287500Y-34569000D01*
G37*
X87287500Y-34069000D02*
X86837500Y-34069000D01*
X86837500Y-33831000D01*
X87287500Y-33831000D01*
X87287500Y-34069000D01*
G36*
X87287500Y-34069000D02*
G01*
X86837500Y-34069000D01*
X86837500Y-33831000D01*
X87287500Y-33831000D01*
X87287500Y-34069000D01*
G37*
X86519000Y-35837500D02*
X86281000Y-35837500D01*
X86281000Y-35387500D01*
X86519000Y-35387500D01*
X86519000Y-35837500D01*
G36*
X86519000Y-35837500D02*
G01*
X86281000Y-35837500D01*
X86281000Y-35387500D01*
X86519000Y-35387500D01*
X86519000Y-35837500D01*
G37*
X86519000Y-34012500D02*
X86281000Y-34012500D01*
X86281000Y-33562500D01*
X86519000Y-33562500D01*
X86519000Y-34012500D01*
G36*
X86519000Y-34012500D02*
G01*
X86281000Y-34012500D01*
X86281000Y-33562500D01*
X86519000Y-33562500D01*
X86519000Y-34012500D01*
G37*
X86019000Y-35837500D02*
X85781000Y-35837500D01*
X85781000Y-35387500D01*
X86019000Y-35387500D01*
X86019000Y-35837500D01*
G36*
X86019000Y-35837500D02*
G01*
X85781000Y-35837500D01*
X85781000Y-35387500D01*
X86019000Y-35387500D01*
X86019000Y-35837500D01*
G37*
X86019000Y-34012500D02*
X85781000Y-34012500D01*
X85781000Y-33562500D01*
X86019000Y-33562500D01*
X86019000Y-34012500D01*
G36*
X86019000Y-34012500D02*
G01*
X85781000Y-34012500D01*
X85781000Y-33562500D01*
X86019000Y-33562500D01*
X86019000Y-34012500D01*
G37*
X85519000Y-35837500D02*
X85281000Y-35837500D01*
X85281000Y-35387500D01*
X85519000Y-35387500D01*
X85519000Y-35837500D01*
G36*
X85519000Y-35837500D02*
G01*
X85281000Y-35837500D01*
X85281000Y-35387500D01*
X85519000Y-35387500D01*
X85519000Y-35837500D01*
G37*
X85519000Y-34012500D02*
X85281000Y-34012500D01*
X85281000Y-33562500D01*
X85519000Y-33562500D01*
X85519000Y-34012500D01*
G36*
X85519000Y-34012500D02*
G01*
X85281000Y-34012500D01*
X85281000Y-33562500D01*
X85519000Y-33562500D01*
X85519000Y-34012500D01*
G37*
X84962500Y-35569000D02*
X84512500Y-35569000D01*
X84512500Y-35331000D01*
X84962500Y-35331000D01*
X84962500Y-35569000D01*
G36*
X84962500Y-35569000D02*
G01*
X84512500Y-35569000D01*
X84512500Y-35331000D01*
X84962500Y-35331000D01*
X84962500Y-35569000D01*
G37*
X84962500Y-35069000D02*
X84512500Y-35069000D01*
X84512500Y-34831000D01*
X84962500Y-34831000D01*
X84962500Y-35069000D01*
G36*
X84962500Y-35069000D02*
G01*
X84512500Y-35069000D01*
X84512500Y-34831000D01*
X84962500Y-34831000D01*
X84962500Y-35069000D01*
G37*
X84962500Y-34569000D02*
X84512500Y-34569000D01*
X84512500Y-34331000D01*
X84962500Y-34331000D01*
X84962500Y-34569000D01*
G36*
X84962500Y-34569000D02*
G01*
X84512500Y-34569000D01*
X84512500Y-34331000D01*
X84962500Y-34331000D01*
X84962500Y-34569000D01*
G37*
X84962500Y-34069000D02*
X84512500Y-34069000D01*
X84512500Y-33831000D01*
X84962500Y-33831000D01*
X84962500Y-34069000D01*
G36*
X84962500Y-34069000D02*
G01*
X84512500Y-34069000D01*
X84512500Y-33831000D01*
X84962500Y-33831000D01*
X84962500Y-34069000D01*
G37*
%TD*%
D11*
%TO.C,U2*%
X101099999Y-31799999D03*
X100099998Y-31799999D03*
X99100000Y-31799999D03*
X100099998Y-31000001D03*
X99100000Y-30999998D03*
X101099999Y-30200000D03*
X100099998Y-30200000D03*
X99100000Y-30200000D03*
%TD*%
D12*
%TO.C,C1*%
X94480000Y-45600000D03*
X93520000Y-45600000D03*
%TD*%
D13*
%TO.C,C2*%
X86300000Y-42500000D03*
X84750000Y-42500000D03*
%TD*%
D14*
%TO.C,R2*%
X84380000Y-28350000D03*
X85400000Y-28350000D03*
%TD*%
D15*
%TO.C,R1*%
X89000000Y-29450000D03*
X87980000Y-29450000D03*
%TD*%
D16*
%TO.C,C3*%
X74820000Y-34250000D03*
X75780000Y-34250000D03*
%TD*%
M02*
